<?xml version="1.0" encoding="utf-8"?>
<!-- Generator: Adobe Illustrator 24.0.1, SVG Export Plug-In . SVG Version: 6.00 Build 0)  -->
<svg version="1.1" id="Layer_1" xmlns="http://www.w3.org/2000/svg" xmlns:xlink="http://www.w3.org/1999/xlink" x="0px" y="0px"
	 viewBox="0 0 1920 1080" style="enable-background:new 0 0 1920 1080;" xml:space="preserve">
<style type="text/css">
	.st0{fill:none;stroke:#D02C3C;stroke-width:3;stroke-miterlimit:10;}
</style>
<g>
	<path class="st0" d="M-124,848c0,0,1172.75,144.05,1378.5,95.5c178-42,181.1-416.76,54-834c-36.44-119.61,3.17-235.14,25.5-269.5"
		/>
	<path class="st0" d="M-111.36,882.79c0,0,1142.4,107.62,1339.14,56.29c170.03-44.32,187.42-425.85,98.79-825.13
		c-26.36-118.73,14.67-231.12,38.35-265.16"/>
	<path class="st0" d="M-98.71,917.57c0,0,1112.05,71.18,1299.79,17.07c162.06-46.65,195.06-435.93,143.58-816.26
		c-15.99-118.14,26.16-227.09,51.21-260.81"/>
	<path class="st0" d="M-86.07,952.36c0,0,1081.71,34.75,1260.43-22.14c154.09-48.97,204.34-446.75,188.37-807.39
		c-5.22-117.79,37.66-223.07,64.06-256.47"/>
	<path class="st0" d="M-73.43,987.14c0,0,1051.36-1.68,1221.07-61.36c146.12-51.29,215.45-457.91,233.15-798.52
		c6.11-117.56,49.15-219.04,76.92-252.12"/>
	<path class="st0" d="M-60.79,1021.93c0,0,1021.01-38.11,1181.71-100.57c138.15-53.62,228.43-468.91,277.94-789.65
		c18.1-117.26,60.65-215.02,89.77-247.78"/>
	<path class="st0" d="M-48.14,1056.71c0,0,990.66-74.54,1142.36-139.79c130.18-55.94,243.11-479.16,322.73-780.78
		c30.8-116.68,72.15-210.99,102.63-243.44"/>
	<path class="st0" d="M-35.5,1091.5c0,0,960.32-110.98,1103-179c172-82,373-900,483-1011"/>
</g>
</svg>
